<svg width="200" height="200" viewBox="0 0 200 200" fill="none" xmlns="http://www.w3.org/2000/svg">
<rect x="25.5844" y="67.8231" width="86" height="115.486" rx="10" transform="rotate(-37.3914 25.5844 67.8231)" fill="#AB463C"/>
<rect x="31.441" y="63.3467" width="78.6286" height="115.486" rx="10" transform="rotate(-37.3914 31.441 63.3467)" fill="#ED654B"/>
<path d="M105.531 158.259L161.169 115.734L172.256 130.239C175.61 134.627 174.771 140.903 170.383 144.257L130.635 174.637C126.247 177.991 119.971 177.152 116.618 172.765L105.531 158.259Z" fill="#C1974C"/>
<path d="M110.411 154.529L161.169 115.734L170.018 127.311C173.371 131.699 172.533 137.975 168.145 141.328L133.278 167.978C128.89 171.332 122.614 170.494 119.26 166.106L110.411 154.529Z" fill="#FEC75C"/>
</svg>
